<svg xmlns="http://www.w3.org/2000/svg" xmlns:xlink="http://www.w3.org/1999/xlink" width="122px" height="94px" viewBox="0 0 122 94">
<g fill="#3ECC5F">
<svg id="图层_1" style="enable-background:new 0 0 512 512;" version="1.1" viewBox="0 0 512 512" x="0px" xml:space="preserve" y="0px">
<g>
	<g transform="translate(0.000000,4881.000000) scale(0.100000,-0.100000)">
		<path d="M2427.2,47877.3c-353.5-30.6-678.6-167.6-942.1-397.2c-39.7-34.6-134.5-129.7-166.6-167.3    c-124.6-146.5-226.3-321.1-291.9-502.9c-110.8-306.5-127.2-650.5-45.6-969.4c101-396.9,346.6-738.4,689.9-960.3    c231.1-149.4,484.3-235.1,761.3-257.3c70.3-5.5,248.9-2.6,313.8,5.5c301.8,37.5,575.5,148.7,806.9,327.6    c345.1,267.5,566,650.2,623.2,1079.8c39.7,298.1-6.2,612.3-129.7,887.1l-10.9,23.3l-173.5-208.8l-173.8-209.2l-247.1-132.7    c-135.6-72.9-247.8-133-248.9-133.4c-1.1-0.4-40.1,32.8-86,74c-72.2,64.1-83.5,75.4-79.8,80.9c2.2,3.3,23,27.7,46.3,54.7    c56.9,65.2,131.2,156,327.6,398.3c166.2,205.2,298.8,366.3,351,425.7c15.3,17.9,28.1,33.9,28.1,36.1    c0,6.2-108.2,114.1-154.2,153.4c-46.3,39.7-121,97.3-126.1,97.3c-9.1,0-118.8-131.2-428.6-513.9    c-192.8-238-329.1-400.9-334.2-399.8c-1.5,0.4-46.6,40.5-100.6,89.3l-98.4,88.6l4.7,15.3c66,217.9,138.5,450.8,142.1,456.3    c7.3,11.7,111.5,130.1,218.7,247.8c158.9,175.3,199,221.9,193.5,224.9c-10.6,5.8-90,29.5-146.1,43.4    c-65.2,16-135.9,29.2-209.6,37.9C2683.1,47879.5,2487,47882.7,2427.2,47877.3z M2503,47610.9c-2.9-4.7-37.5-58.3-76.5-119.5    l-71.4-111.2l-245.3-1023.4c-134.5-562.7-244.2-1024.1-243.1-1024.8c2.6-2.6,1917.7,843.3,1923.9,849.9    c3.3,3.6,34.3,38.3,69.2,77.3l63.4,71.1l2.9-23.7c3.6-30.2,0.4-141.8-6.6-202.3c-34.6-309.4-164.7-586.8-379-806.5    c-116.3-119.2-225.2-199-369.9-271.5c-147.2-73.6-276.6-112.6-459.2-137.8c-22.6-2.9-75.4-4.7-153.1-4.7    c-119.9,0-137,1.1-231.4,16.8c-498.6,82-922,451.2-1074,936.3c-44.5,141.8-62.7,260.9-62.7,413.6c0,94.8,2.9,133.4,16,217.2    c44.1,277,172.4,532.4,368.1,733.6c174.9,179.7,375.4,299.6,612.3,366.6c93.3,26.2,218.3,47,305.8,50.3    C2508.1,47618.9,2508.1,47618.9,2503,47610.9z M2712.6,46314.2c121.4-109.3,219.4-199.7,218.3-201.2    c-2.2-2.2-512-232.9-549.9-248.9l-12-5.1l-4,16c-7.3,28.4-36.4,55-68.2,62c-10.9,2.2-12,3.6-9.8,12    c2.6,10.6,150.5,529.2,162.5,570.4l7.3,24.8l17.9-15.7C2484.5,46519.7,2591.6,46423.5,2712.6,46314.2z"/>
	</g>
</g>
</svg>
</g>
</svg>
